<svg width="176" height="109" viewBox="0 0 176 109" fill="none" xmlns="http://www.w3.org/2000/svg">
<path d="M99.0988 40.0613H91.0844V39.65C92.8547 39.2502 94.519 38.5612 96.0498 37.597L97.5966 39.1443L102.634 34.1082L101.086 32.5618C102.051 31.0314 102.739 29.3676 103.14 27.5978H105.332V22.2563H108.894V20.4758H107.113C107.113 11.2207 100.618 3.25921 91.6089 1.34606C91.1467 0.545723 90.2918 0 89.3034 0H85.7414C84.7529 0 83.8981 0.545723 83.4359 1.34606C74.4267 3.25921 67.9315 11.2207 67.9315 20.4758H66.1505V22.2563H69.7125V27.5978H71.9049C72.3047 29.3676 72.9939 31.0314 73.9583 32.5618L72.4107 34.1082L77.4482 39.1443L78.995 37.597C80.5257 38.5612 82.1901 39.2493 83.9604 39.65V40.0613H75.9459C75.7785 40.0613 75.6156 40.0817 75.449 40.0862L70.4418 35.0794C70.5486 34.6574 70.6029 34.2381 70.6029 33.8295C70.6029 30.297 67.1309 27.4998 63.4558 28.8183L62.1361 29.2937L64.8913 32.049L63.479 33.4609L60.7229 30.7056L60.2474 32.025C60.0283 32.6357 59.917 33.2428 59.917 33.8295C59.917 36.7753 62.3133 39.171 65.26 39.171C65.6687 39.171 66.0881 39.1167 66.5102 39.0099L69.1131 41.6112C63.6874 44.1822 59.917 49.6955 59.917 56.0858H61.698C61.698 52.0609 63.3837 48.4278 66.0783 45.8345C68.4195 48.7305 69.7125 52.3583 69.7125 56.0858H71.4934C71.4934 55.4893 71.456 54.8955 71.3973 54.3053H86.6319V56.0858H88.4129V54.3053H103.647C103.589 54.8955 103.551 55.4893 103.551 56.0858H105.332C105.332 52.3583 106.625 48.7305 108.966 45.8345C111.661 48.4278 113.347 52.0609 113.347 56.0858H115.128C115.128 47.25 107.937 40.0613 99.0988 40.0613ZM69.7125 20.4758C69.7125 12.3175 75.2656 5.26405 83.0699 3.25743V13.3538H84.8509V2.67075C84.8509 2.17933 85.2498 1.7805 85.7414 1.7805H89.3034C89.7949 1.7805 90.1939 2.17933 90.1939 2.67075V13.3538H91.9749V3.25743C99.7792 5.26405 105.332 12.3175 105.332 20.4758H103.8L102.909 23.1465H72.1355L71.245 20.4758H69.7125ZM95.4843 24.927C95.04 28.9269 91.6409 32.049 87.5224 32.049C83.4038 32.049 80.0048 28.9269 79.5605 24.927H95.4843ZM79.3886 35.7231L78.7768 35.2966L77.4473 36.6267L74.9281 34.1082L76.2585 32.779L75.8319 32.1674C74.6547 30.4777 73.8729 28.5877 73.5095 26.5499L73.3795 25.8173H71.4934V24.927H77.7723C78.2238 29.9106 82.4216 33.8295 87.5224 33.8295C92.6231 33.8295 96.8209 29.9106 97.2724 24.927H103.551V25.8173H101.665L101.535 26.5508C101.172 28.5877 100.39 30.4777 99.2128 32.1683L98.7863 32.7799L100.117 34.109L97.5975 36.6276L96.2679 35.2975L95.6562 35.724C93.966 36.9009 92.0755 37.6825 90.0371 38.0457L89.3034 38.1757V40.0613H85.7414V38.1757L85.0076 38.0448C82.9702 37.6816 81.0796 36.9 79.3886 35.7231ZM66.9929 36.9739L66.4604 37.1644C66.0392 37.3166 65.6464 37.3905 65.26 37.3905C63.4273 37.3905 61.9135 35.9999 61.7185 34.2194L63.479 35.9786L67.4096 32.049L65.65 30.289C67.431 30.4839 68.822 31.9974 68.822 33.8295C68.822 34.2159 68.748 34.6085 68.5958 35.0304L68.4052 35.5628L73.164 40.3203C72.3911 40.4565 71.6368 40.6435 70.9057 40.8865L66.9929 36.9739ZM86.6319 52.5248H71.1248C70.5495 49.6671 69.2939 46.9696 67.4408 44.6852C69.8175 42.9083 72.7562 41.8418 75.9459 41.8418H79.0627L86.6319 51.9318V52.5248ZM87.5224 50.1505L81.2889 41.8418H83.9604H91.0844H93.7559L87.5224 50.1505ZM103.92 52.5248H88.4129V51.9318L95.9821 41.8418H99.0988C102.289 41.8418 105.227 42.9083 107.604 44.6852C105.751 46.9696 104.496 49.6671 103.92 52.5248Z" fill="#4D5159"/>
<path d="M101.77 18.6953H73.2744V20.4758H101.77V18.6953Z" fill="#4D5159"/>
<path d="M14.2171 90.3426C12.0562 90.3426 10.3465 89.9627 9.08789 89.2031C7.82932 88.4434 6.92695 87.3513 6.38078 85.9269C5.83461 84.5025 5.56152 82.8051 5.56152 80.8347V70.1161C5.56152 68.1219 5.83461 66.4245 6.38078 65.0239C6.92695 63.6232 7.82932 62.5549 9.08789 61.819C10.3465 61.0593 12.0562 60.6794 14.2171 60.6794C16.4018 60.6794 18.1235 61.0593 19.382 61.819C20.6643 62.5549 21.5786 63.6232 22.1248 65.0239C22.6709 66.4245 22.944 68.1219 22.944 70.1161V80.8347C22.944 82.8051 22.6709 84.5025 22.1248 85.9269C21.5786 87.3513 20.6643 88.4434 19.382 89.2031C18.1235 89.9627 16.4018 90.3426 14.2171 90.3426ZM14.2171 85.8201C14.8821 85.8201 15.3689 85.6539 15.6776 85.3216C15.9863 84.9892 16.1881 84.5619 16.2831 84.0396C16.3781 83.5173 16.4256 82.9832 16.4256 82.4372V68.5493C16.4256 67.9795 16.3781 67.4453 16.2831 66.9468C16.1881 66.4245 15.9863 65.9972 15.6776 65.6648C15.3689 65.3325 14.8821 65.1663 14.2171 65.1663C13.5997 65.1663 13.1367 65.3325 12.828 65.6648C12.5193 65.9972 12.3174 66.4245 12.2224 66.9468C12.1275 67.4453 12.08 67.9795 12.08 68.5493V82.4372C12.08 82.9832 12.1156 83.5173 12.1868 84.0396C12.2818 84.5619 12.4718 84.9892 12.7567 85.3216C13.0654 85.6539 13.5522 85.8201 14.2171 85.8201Z" fill="#4D5159"/>
<path d="M39.8434 90.2714C39.0835 90.2714 38.3236 90.1052 37.5637 89.7728C36.8276 89.4167 36.1152 88.9419 35.4265 88.3484V89.9153H29.6205V61.0712H35.4265V70.8283C36.1389 70.2111 36.8751 69.7481 37.635 69.4395C38.4186 69.1309 39.1785 68.9766 39.9146 68.9766C40.6983 68.9766 41.3632 69.1309 41.9094 69.4395C42.4793 69.7481 42.9423 70.1873 43.2985 70.7571C43.6547 71.3031 43.9159 71.9441 44.0822 72.68C44.2484 73.416 44.3315 74.1994 44.3315 75.0303V83.8972C44.3315 85.1791 44.1534 86.2949 43.7972 87.2445C43.4648 88.1941 42.9661 88.9419 42.3012 89.4879C41.6363 90.0102 40.817 90.2714 39.8434 90.2714ZM37.0294 86.5323C37.4094 86.5323 37.7062 86.4255 37.9199 86.2118C38.1337 85.9982 38.288 85.7251 38.383 85.3928C38.478 85.0367 38.5255 84.645 38.5255 84.2177V74.603C38.5255 74.1994 38.478 73.8433 38.383 73.5347C38.288 73.2023 38.1337 72.9412 37.9199 72.7512C37.73 72.5613 37.4569 72.4664 37.1007 72.4664C36.792 72.4664 36.4951 72.5376 36.2102 72.68C35.949 72.7987 35.6878 72.953 35.4265 73.1429V85.9625C35.6878 86.1287 35.949 86.2712 36.2102 86.3899C36.4951 86.4848 36.7682 86.5323 37.0294 86.5323Z" fill="#4D5159"/>
<path d="M50.8271 89.9153V69.3327H56.6332V72.7512C57.2981 71.5642 57.963 70.6621 58.6279 70.0449C59.2928 69.4039 60.1002 69.0834 61.05 69.0834C61.24 69.0834 61.4062 69.0953 61.5487 69.119C61.6912 69.119 61.8218 69.1428 61.9405 69.1902V74.9591C61.6793 74.8404 61.3825 74.7454 61.05 74.6742C60.7413 74.5792 60.4089 74.5317 60.0527 74.5317C59.3878 74.5317 58.7704 74.7098 58.2004 75.0659C57.6305 75.422 57.1081 75.9087 56.6332 76.5259V89.9153H50.8271Z" fill="#4D5159"/>
<path d="M71.6428 90.2714C70.5979 90.2714 69.7193 90.0221 69.0069 89.5236C68.2945 89.025 67.7602 88.3959 67.404 87.6362C67.0478 86.8528 66.8697 86.0575 66.8697 85.2503C66.8697 83.9684 67.119 82.8882 67.6177 82.0098C68.1401 81.1315 68.8169 80.3955 69.648 79.802C70.4792 79.2085 71.3934 78.71 72.3908 78.3064C73.3881 77.8791 74.3736 77.4992 75.3472 77.1669V75.1015C75.3472 74.7454 75.3116 74.4368 75.2404 74.1756C75.1691 73.8908 75.0504 73.6771 74.8842 73.5347C74.7179 73.3685 74.4686 73.2854 74.1361 73.2854C73.8037 73.2854 73.5425 73.3566 73.3525 73.499C73.1863 73.6415 73.0676 73.8433 72.9963 74.1044C72.9251 74.3418 72.8776 74.6148 72.8538 74.9234L72.7113 76.4191L67.2971 76.2054C67.4159 73.7364 68.0689 71.9203 69.2562 70.7571C70.4673 69.5701 72.272 68.9766 74.6704 68.9766C76.7601 68.9766 78.3155 69.5582 79.3366 70.7215C80.3815 71.861 80.9039 73.3447 80.9039 75.1727V84.7874C80.9039 85.6421 80.9158 86.3899 80.9395 87.0308C80.987 87.6718 81.0345 88.2297 81.082 88.7045C81.1533 89.1793 81.2126 89.5829 81.2601 89.9153H76.0596C75.9884 89.3692 75.9053 88.7757 75.8103 88.1348C75.7153 87.4938 75.6441 87.1139 75.5966 86.9952C75.3591 87.8499 74.9079 88.6096 74.243 89.2743C73.6018 89.939 72.7351 90.2714 71.6428 90.2714ZM73.7087 86.3543C73.9462 86.3543 74.1599 86.3068 74.3499 86.2118C74.5636 86.1169 74.7536 85.9863 74.9198 85.8201C75.086 85.6539 75.2285 85.4877 75.3472 85.3216V79.6952C74.8723 79.9801 74.433 80.2768 74.0293 80.5854C73.6256 80.8703 73.2813 81.1908 72.9963 81.5469C72.7113 81.903 72.4858 82.2947 72.3195 82.722C72.177 83.1256 72.1058 83.5885 72.1058 84.1108C72.1058 84.7993 72.2483 85.3453 72.5333 85.7489C72.8182 86.1525 73.21 86.3543 73.7087 86.3543Z" fill="#4D5159"/>
<path d="M96.7127 89.9153V65.8073H92.3671V61.0712H107.434V65.8073H103.124V89.9153H96.7127Z" fill="#4D5159"/>
<path d="M118.981 90.2714C117.485 90.2714 116.203 90.0102 115.134 89.4879C114.065 88.9419 113.246 88.1585 112.676 87.1377C112.106 86.0931 111.821 84.8468 111.821 83.3986V75.8493C111.821 74.3774 112.106 73.1311 112.676 72.1103C113.246 71.0894 114.065 70.3179 115.134 69.7956C116.226 69.2496 117.509 68.9766 118.981 68.9766C120.501 68.9766 121.759 69.2377 122.757 69.76C123.778 70.2823 124.538 71.0538 125.036 72.0746C125.559 73.0955 125.82 74.3537 125.82 75.8493V79.9801H117.556V83.9328C117.556 84.4551 117.616 84.8824 117.734 85.2147C117.853 85.5471 118.019 85.7845 118.233 85.9269C118.447 86.0694 118.696 86.1406 118.981 86.1406C119.266 86.1406 119.515 86.0812 119.729 85.9625C119.966 85.8201 120.145 85.6064 120.263 85.3216C120.406 85.0367 120.477 84.645 120.477 84.1464V81.9742H125.82V83.9684C125.82 86.0575 125.214 87.6362 124.003 88.7045C122.792 89.7491 121.118 90.2714 118.981 90.2714ZM117.556 77.2737H120.477V75.2083C120.477 74.6623 120.406 74.235 120.263 73.9264C120.145 73.6177 119.966 73.4041 119.729 73.2854C119.515 73.1667 119.254 73.1073 118.945 73.1073C118.66 73.1073 118.411 73.1786 118.197 73.321C118.007 73.4634 117.853 73.7127 117.734 74.0688C117.616 74.4012 117.556 74.8878 117.556 75.5288V77.2737Z" fill="#4D5159"/>
<path d="M138.794 90.2714C137.298 90.2714 136.015 89.9983 134.947 89.4523C133.902 88.9063 133.095 88.1229 132.525 87.1021C131.955 86.0812 131.67 84.8468 131.67 83.3986V75.8493C131.67 74.3774 131.955 73.1311 132.525 72.1103C133.095 71.0894 133.902 70.3179 134.947 69.7956C136.015 69.2496 137.298 68.9766 138.794 68.9766C140.266 68.9766 141.513 69.2021 142.534 69.6532C143.579 70.1042 144.374 70.7927 144.92 71.7185C145.466 72.6207 145.74 73.7721 145.74 75.1727V77.3449H140.147V74.9947C140.147 74.4486 140.088 74.0332 139.969 73.7483C139.874 73.4397 139.72 73.226 139.506 73.1073C139.316 72.9886 139.079 72.9293 138.794 72.9293C138.509 72.9293 138.271 73.0124 138.081 73.1786C137.891 73.321 137.749 73.5703 137.654 73.9264C137.559 74.2587 137.511 74.7335 137.511 75.3508V83.8972C137.511 84.823 137.618 85.4521 137.832 85.7845C138.069 86.1169 138.402 86.283 138.829 86.283C139.138 86.283 139.387 86.2237 139.577 86.105C139.767 85.9625 139.91 85.7489 140.005 85.464C140.1 85.1554 140.147 84.7518 140.147 84.2533V81.5113H145.74V84.004C145.74 85.3809 145.455 86.5442 144.885 87.4938C144.339 88.4196 143.543 89.12 142.498 89.5948C141.477 90.0458 140.242 90.2714 138.794 90.2714Z" fill="#4D5159"/>
<path d="M151.912 89.9153V61.0712H157.682V71.1488C158.442 70.3891 159.237 69.8431 160.068 69.5107C160.9 69.1546 161.79 68.9766 162.74 68.9766C163.571 68.9766 164.26 69.1902 164.806 69.6176C165.376 70.0211 165.803 70.5909 166.088 71.3268C166.373 72.039 166.516 72.8581 166.516 73.7839V89.9153H160.745V74.603C160.745 74.1044 160.662 73.7246 160.496 73.4634C160.33 73.2023 160.021 73.0717 159.57 73.0717C159.332 73.0717 159.047 73.1429 158.715 73.2854C158.382 73.4041 158.038 73.5821 157.682 73.8195V89.9153H151.912Z" fill="#4D5159"/>
<path d="M5.85954 103.048V105.829C5.76562 105.968 5.61604 106.124 5.41081 106.298C5.20558 106.468 4.92208 106.618 4.56032 106.747C4.20203 106.872 3.73939 106.934 3.17239 106.934C2.70975 106.934 2.28364 106.854 1.89404 106.694C1.50793 106.531 1.17226 106.295 0.887018 105.985C0.605259 105.672 0.386114 105.293 0.229581 104.848C0.076527 104.399 0 103.892 0 103.325V102.735C0 102.168 0.0660915 101.662 0.198275 101.217C0.333936 100.772 0.532211 100.395 0.793098 100.085C1.05399 99.7724 1.37401 99.5359 1.75316 99.3759C2.13232 99.2125 2.56713 99.1308 3.0576 99.1308C3.63851 99.1308 4.12376 99.2316 4.51336 99.4333C4.90643 99.6315 5.21253 99.9063 5.43168 100.257C5.6543 100.609 5.79692 101.009 5.85954 101.457H4.85251C4.80729 101.183 4.71685 100.932 4.58119 100.706C4.449 100.48 4.25943 100.299 4.01245 100.164C3.76548 100.025 3.4472 99.9549 3.0576 99.9549C2.70627 99.9549 2.40191 100.019 2.1445 100.148C1.88709 100.277 1.6749 100.461 1.50793 100.701C1.34096 100.941 1.21574 101.231 1.13225 101.572C1.05225 101.913 1.01224 102.297 1.01224 102.725V103.325C1.01224 103.763 1.06268 104.154 1.16356 104.498C1.26791 104.843 1.41575 105.136 1.60707 105.38C1.79839 105.62 2.02623 105.802 2.29059 105.928C2.55844 106.053 2.85411 106.115 3.17761 106.115C3.5359 106.115 3.82635 106.086 4.04898 106.027C4.2716 105.964 4.44552 105.891 4.57075 105.808C4.69598 105.721 4.79164 105.639 4.85773 105.562V103.862H3.09934V103.048H5.85954Z" fill="#4D5159"/>
<path d="M9.72589 106.934C9.33282 106.934 8.97627 106.868 8.65625 106.736C8.33971 106.601 8.06664 106.411 7.83706 106.168C7.61096 105.924 7.43704 105.636 7.31529 105.302C7.19354 104.968 7.13267 104.603 7.13267 104.206V103.987C7.13267 103.528 7.2005 103.12 7.33616 102.761C7.47182 102.4 7.65618 102.094 7.88924 101.843C8.1223 101.593 8.38667 101.403 8.68234 101.275C8.97801 101.146 9.28412 101.082 9.60066 101.082C10.0042 101.082 10.352 101.151 10.6442 101.29C10.9399 101.429 11.1816 101.624 11.3695 101.875C11.5573 102.121 11.6965 102.414 11.7869 102.751C11.8773 103.085 11.9226 103.45 11.9226 103.846V104.279H7.70662V103.492H10.9573V103.419C10.9434 103.168 10.8912 102.925 10.8007 102.688C10.7138 102.452 10.5746 102.257 10.3833 102.104C10.192 101.951 9.93112 101.875 9.60066 101.875C9.38152 101.875 9.17977 101.921 8.99541 102.015C8.81104 102.106 8.65277 102.241 8.52059 102.422C8.38841 102.603 8.28579 102.824 8.21274 103.085C8.13969 103.346 8.10317 103.646 8.10317 103.987V104.206C8.10317 104.474 8.13969 104.726 8.21274 104.963C8.28927 105.196 8.39884 105.401 8.54146 105.578C8.68756 105.755 8.86322 105.895 9.06845 105.995C9.27716 106.096 9.5137 106.147 9.77807 106.147C10.119 106.147 10.4077 106.077 10.6442 105.938C10.8808 105.799 11.0877 105.613 11.2651 105.38L11.8495 105.844C11.7278 106.028 11.573 106.204 11.3851 106.371C11.1973 106.538 10.966 106.674 10.6912 106.778C10.4199 106.882 10.0981 106.934 9.72589 106.934Z" fill="#4D5159"/>
<path d="M14.0149 102.073V106.83H13.0496V101.186H13.9888L14.0149 102.073ZM15.7785 101.155L15.7733 102.052C15.6933 102.035 15.6167 102.024 15.5437 102.021C15.4741 102.014 15.3941 102.01 15.3037 102.01C15.081 102.01 14.8845 102.045 14.7141 102.115C14.5436 102.184 14.3993 102.281 14.281 102.407C14.1627 102.532 14.0688 102.681 13.9992 102.855C13.9331 103.026 13.8897 103.213 13.8688 103.419L13.5975 103.575C13.5975 103.234 13.6305 102.914 13.6966 102.615C13.7662 102.316 13.8723 102.052 14.0149 101.822C14.1575 101.589 14.3384 101.409 14.5575 101.28C14.7802 101.148 15.0445 101.082 15.3506 101.082C15.4202 101.082 15.5002 101.09 15.5906 101.108C15.6811 101.122 15.7437 101.137 15.7785 101.155Z" fill="#4D5159"/>
<path d="M18.9091 106.934C18.5161 106.934 18.1595 106.868 17.8395 106.736C17.523 106.601 17.2499 106.411 17.0203 106.168C16.7942 105.924 16.6203 105.636 16.4985 105.302C16.3768 104.968 16.3159 104.603 16.3159 104.206V103.987C16.3159 103.528 16.3837 103.12 16.5194 102.761C16.6551 102.4 16.8394 102.094 17.0725 101.843C17.3055 101.593 17.5699 101.403 17.8656 101.275C18.1613 101.146 18.4674 101.082 18.7839 101.082C19.1874 101.082 19.5353 101.151 19.8275 101.29C20.1231 101.429 20.3649 101.624 20.5527 101.875C20.7406 102.121 20.8797 102.414 20.9701 102.751C21.0606 103.085 21.1058 103.45 21.1058 103.846V104.279H16.8899V103.492H20.1405V103.419C20.1266 103.168 20.0744 102.925 19.984 102.688C19.897 102.452 19.7579 102.257 19.5666 102.104C19.3753 101.951 19.1144 101.875 18.7839 101.875C18.5648 101.875 18.363 101.921 18.1786 102.015C17.9943 102.106 17.836 102.241 17.7038 102.422C17.5716 102.603 17.469 102.824 17.396 103.085C17.3229 103.346 17.2864 103.646 17.2864 103.987V104.206C17.2864 104.474 17.3229 104.726 17.396 104.963C17.4725 105.196 17.5821 105.401 17.7247 105.578C17.8708 105.755 18.0465 105.895 18.2517 105.995C18.4604 106.096 18.6969 106.147 18.9613 106.147C19.3022 106.147 19.5909 106.077 19.8275 105.938C20.064 105.799 20.271 105.613 20.4484 105.38L21.0328 105.844C20.911 106.028 20.7562 106.204 20.5684 106.371C20.3805 106.538 20.1492 106.674 19.8744 106.778C19.6031 106.882 19.2813 106.934 18.9091 106.934Z" fill="#4D5159"/>
<path d="M23.1981 102.391V106.83H22.2328V101.186H23.1459L23.1981 102.391ZM22.9685 103.794L22.5668 103.779C22.5703 103.392 22.6277 103.036 22.739 102.709C22.8503 102.379 23.0068 102.092 23.2086 101.848C23.4103 101.605 23.6503 101.417 23.9286 101.285C24.2104 101.149 24.5217 101.082 24.8626 101.082C25.1409 101.082 25.3913 101.12 25.6139 101.196C25.8366 101.269 26.0261 101.388 26.1827 101.551C26.3427 101.715 26.4644 101.927 26.5479 102.188C26.6314 102.445 26.6731 102.76 26.6731 103.132V106.83H25.7026V103.121C25.7026 102.826 25.6592 102.589 25.5722 102.412C25.4852 102.231 25.3583 102.101 25.1913 102.021C25.0243 101.937 24.8191 101.895 24.5756 101.895C24.3356 101.895 24.1165 101.946 23.9182 102.047C23.7234 102.148 23.5547 102.287 23.4121 102.464C23.2729 102.641 23.1633 102.845 23.0833 103.074C23.0068 103.3 22.9685 103.54 22.9685 103.794Z" fill="#4D5159"/>
<path d="M30.3986 106.141C30.6282 106.141 30.8404 106.095 31.0352 106.001C31.23 105.907 31.39 105.778 31.5152 105.615C31.6404 105.448 31.7118 105.258 31.7292 105.046H32.6475C32.6301 105.38 32.517 105.691 32.3083 105.98C32.1031 106.265 31.8335 106.496 31.4996 106.674C31.1656 106.847 30.7987 106.934 30.3986 106.934C29.9742 106.934 29.6038 106.86 29.2872 106.71C28.9742 106.561 28.7133 106.355 28.5046 106.095C28.2993 105.834 28.1446 105.535 28.0402 105.197C27.9393 104.857 27.8889 104.497 27.8889 104.118V103.898C27.8889 103.519 27.9393 103.161 28.0402 102.824C28.1446 102.483 28.2993 102.182 28.5046 101.921C28.7133 101.661 28.9742 101.456 29.2872 101.306C29.6038 101.156 29.9742 101.082 30.3986 101.082C30.8404 101.082 31.2265 101.172 31.557 101.353C31.8874 101.53 32.1466 101.774 32.3344 102.083C32.5257 102.389 32.6301 102.737 32.6475 103.126H31.7292C31.7118 102.893 31.6457 102.683 31.5309 102.495C31.4196 102.308 31.2665 102.158 31.0717 102.047C30.8804 101.932 30.656 101.875 30.3986 101.875C30.103 101.875 29.8542 101.934 29.6525 102.052C29.4542 102.167 29.2959 102.323 29.1777 102.521C29.0629 102.716 28.9794 102.933 28.9272 103.173C28.8785 103.41 28.8542 103.652 28.8542 103.898V104.118C28.8542 104.364 28.8785 104.608 28.9272 104.848C28.9759 105.088 29.0577 105.305 29.1725 105.5C29.2907 105.695 29.449 105.851 29.6473 105.969C29.849 106.084 30.0995 106.141 30.3986 106.141Z" fill="#4D5159"/>
<path d="M34.7815 101.186V106.83H33.811V101.186H34.7815ZM33.738 99.6889C33.738 99.5324 33.7849 99.4003 33.8789 99.2925C33.9763 99.1847 34.1189 99.1308 34.3067 99.1308C34.4911 99.1308 34.632 99.1847 34.7294 99.2925C34.8302 99.4003 34.8807 99.5324 34.8807 99.6889C34.8807 99.8385 34.8302 99.9671 34.7294 100.075C34.632 100.179 34.4911 100.231 34.3067 100.231C34.1189 100.231 33.9763 100.179 33.8789 100.075C33.7849 99.9671 33.738 99.8385 33.738 99.6889Z" fill="#4D5159"/>
<path d="M39.6601 105.865V102.96C39.6601 102.737 39.6149 102.544 39.5245 102.381C39.4375 102.214 39.3053 102.085 39.1279 101.995C38.9505 101.904 38.7314 101.859 38.4705 101.859C38.227 101.859 38.0131 101.901 37.8287 101.984C37.6478 102.068 37.5052 102.177 37.4008 102.313C37.3 102.448 37.2495 102.594 37.2495 102.751H36.2842C36.2842 102.549 36.3364 102.349 36.4408 102.151C36.5451 101.953 36.6947 101.774 36.8895 101.614C37.0878 101.45 37.3243 101.322 37.5991 101.228C37.8774 101.13 38.187 101.082 38.5279 101.082C38.9383 101.082 39.3001 101.151 39.6132 101.29C39.9297 101.429 40.1767 101.64 40.3541 101.921C40.535 102.2 40.6254 102.549 40.6254 102.97V105.599C40.6254 105.787 40.6411 105.987 40.6724 106.199C40.7072 106.411 40.7576 106.594 40.8237 106.747V106.83H39.8167C39.768 106.719 39.7297 106.571 39.7019 106.387C39.674 106.199 39.6601 106.025 39.6601 105.865ZM39.8271 103.408L39.8375 104.086H38.8618C38.587 104.086 38.3418 104.109 38.1261 104.154C37.9104 104.196 37.7296 104.26 37.5835 104.347C37.4374 104.434 37.3261 104.544 37.2495 104.676C37.173 104.804 37.1347 104.956 37.1347 105.13C37.1347 105.307 37.1747 105.469 37.2547 105.615C37.3348 105.761 37.4548 105.877 37.6148 105.964C37.7783 106.048 37.9783 106.089 38.2148 106.089C38.5105 106.089 38.7714 106.027 38.9975 105.902C39.2236 105.776 39.4027 105.623 39.5349 105.443C39.6706 105.262 39.7436 105.086 39.7541 104.916L40.1663 105.38C40.1419 105.526 40.0758 105.688 39.968 105.865C39.8601 106.042 39.7158 106.213 39.5349 106.376C39.3575 106.536 39.1453 106.67 38.8983 106.778C38.6548 106.882 38.38 106.934 38.0739 106.934C37.6913 106.934 37.3556 106.86 37.0669 106.71C36.7817 106.561 36.5591 106.361 36.399 106.11C36.2425 105.856 36.1642 105.573 36.1642 105.26C36.1642 104.957 36.2234 104.691 36.3416 104.462C36.4599 104.229 36.6304 104.036 36.853 103.883C37.0756 103.726 37.3435 103.608 37.6565 103.528C37.9696 103.448 38.3192 103.408 38.7053 103.408H39.8271Z" fill="#4D5159"/>
<path d="M43.1039 102.308V106.83H42.1334V101.186H43.0517L43.1039 102.308ZM42.9056 103.794L42.4568 103.779C42.4603 103.392 42.5108 103.036 42.6082 102.709C42.7056 102.379 42.8499 102.092 43.0412 101.848C43.2326 101.605 43.4708 101.417 43.7561 101.285C44.0413 101.149 44.3718 101.082 44.7474 101.082C45.0118 101.082 45.2553 101.12 45.4779 101.196C45.7006 101.269 45.8936 101.386 46.0571 101.546C46.2206 101.706 46.3476 101.911 46.438 102.161C46.5284 102.412 46.5737 102.714 46.5737 103.069V106.83H45.6084V103.116C45.6084 102.82 45.5579 102.584 45.4571 102.407C45.3597 102.229 45.2205 102.101 45.0396 102.021C44.8588 101.937 44.6466 101.895 44.4031 101.895C44.1178 101.895 43.8796 101.946 43.6882 102.047C43.4969 102.148 43.3439 102.287 43.2291 102.464C43.1143 102.641 43.0308 102.845 42.9786 103.074C42.9299 103.3 42.9056 103.54 42.9056 103.794ZM46.5632 103.262L45.9162 103.46C45.9197 103.151 45.9701 102.853 46.0675 102.568C46.1684 102.283 46.3128 102.029 46.5006 101.807C46.6919 101.584 46.9267 101.409 47.205 101.28C47.4833 101.148 47.8016 101.082 48.1599 101.082C48.4625 101.082 48.7303 101.122 48.9634 101.202C49.1999 101.282 49.3982 101.405 49.5582 101.572C49.7217 101.735 49.8452 101.946 49.9287 102.203C50.0122 102.461 50.0539 102.767 50.0539 103.121V106.83H49.0834V103.111C49.0834 102.794 49.033 102.549 48.9321 102.375C48.8347 102.198 48.6955 102.075 48.5147 102.005C48.3373 101.932 48.1251 101.895 47.8781 101.895C47.6659 101.895 47.4781 101.932 47.3146 102.005C47.1511 102.078 47.0137 102.179 46.9024 102.308C46.7911 102.433 46.7058 102.577 46.6467 102.74C46.591 102.904 46.5632 103.078 46.5632 103.262Z" fill="#4D5159"/>
<path d="M53.8576 106.934C53.4646 106.934 53.108 106.868 52.788 106.736C52.4715 106.601 52.1984 106.411 51.9688 106.168C51.7427 105.924 51.5688 105.636 51.447 105.302C51.3253 104.968 51.2644 104.603 51.2644 104.206V103.987C51.2644 103.528 51.3322 103.12 51.4679 102.761C51.6036 102.4 51.7879 102.094 52.021 101.843C52.254 101.593 52.5184 101.403 52.8141 101.275C53.1098 101.146 53.4159 101.082 53.7324 101.082C54.1359 101.082 54.4838 101.151 54.776 101.29C55.0716 101.429 55.3134 101.624 55.5012 101.875C55.6891 102.121 55.8282 102.414 55.9187 102.751C56.0091 103.085 56.0543 103.45 56.0543 103.846V104.279H51.8384V103.492H55.089V103.419C55.0751 103.168 55.0229 102.925 54.9325 102.688C54.8455 102.452 54.7064 102.257 54.5151 102.104C54.3238 101.951 54.0629 101.875 53.7324 101.875C53.5133 101.875 53.3115 101.921 53.1272 102.015C52.9428 102.106 52.7845 102.241 52.6523 102.422C52.5202 102.603 52.4175 102.824 52.3445 103.085C52.2714 103.346 52.2349 103.646 52.2349 103.987V104.206C52.2349 104.474 52.2714 104.726 52.3445 104.963C52.421 105.196 52.5306 105.401 52.6732 105.578C52.8193 105.755 52.995 105.895 53.2002 105.995C53.4089 106.096 53.6455 106.147 53.9098 106.147C54.2507 106.147 54.5394 106.077 54.776 105.938C55.0125 105.799 55.2195 105.613 55.3969 105.38L55.9813 105.844C55.8595 106.028 55.7047 106.204 55.5169 106.371C55.329 106.538 55.0977 106.674 54.8229 106.778C54.5516 106.882 54.2298 106.934 53.8576 106.934Z" fill="#4D5159"/>
<path d="M58.1466 102.391V106.83H57.1813V101.186H58.0945L58.1466 102.391ZM57.917 103.794L57.5153 103.779C57.5188 103.392 57.5762 103.036 57.6875 102.709C57.7988 102.379 57.9553 102.092 58.1571 101.848C58.3588 101.605 58.5988 101.417 58.8771 101.285C59.1589 101.149 59.4702 101.082 59.8111 101.082C60.0894 101.082 60.3398 101.12 60.5625 101.196C60.7851 101.269 60.9747 101.388 61.1312 101.551C61.2912 101.715 61.4129 101.927 61.4964 102.188C61.5799 102.445 61.6217 102.76 61.6217 103.132V106.83H60.6511V103.121C60.6511 102.826 60.6077 102.589 60.5207 102.412C60.4337 102.231 60.3068 102.101 60.1398 102.021C59.9728 101.937 59.7676 101.895 59.5241 101.895C59.2841 101.895 59.065 101.946 58.8667 102.047C58.6719 102.148 58.5032 102.287 58.3606 102.464C58.2214 102.641 58.1118 102.845 58.0318 103.074C57.9553 103.3 57.917 103.54 57.917 103.794Z" fill="#4D5159"/>
<path d="M65.4515 101.186V101.927H62.3991V101.186H65.4515ZM63.4322 99.8141H64.3975V105.432C64.3975 105.623 64.4271 105.768 64.4862 105.865C64.5453 105.962 64.6219 106.027 64.7158 106.058C64.8097 106.089 64.9106 106.105 65.0184 106.105C65.0984 106.105 65.1819 106.098 65.2689 106.084C65.3593 106.067 65.4271 106.053 65.4724 106.042L65.4776 106.83C65.401 106.854 65.3002 106.877 65.1749 106.898C65.0532 106.922 64.9054 106.934 64.7314 106.934C64.4949 106.934 64.2775 106.887 64.0792 106.794C63.8809 106.7 63.7227 106.543 63.6044 106.324C63.4896 106.102 63.4322 105.802 63.4322 105.427V99.8141Z" fill="#4D5159"/>
<path d="M66.2237 104.071V103.951C66.2237 103.544 66.2828 103.166 66.4011 102.819C66.5194 102.467 66.6898 102.163 66.9125 101.906C67.1351 101.645 67.4047 101.443 67.7212 101.301C68.0378 101.155 68.3926 101.082 68.7856 101.082C69.1822 101.082 69.5387 101.155 69.8553 101.301C70.1753 101.443 70.4466 101.645 70.6692 101.906C70.8953 102.163 71.0675 102.467 71.1858 102.819C71.3041 103.166 71.3632 103.544 71.3632 103.951V104.071C71.3632 104.477 71.3041 104.855 71.1858 105.203C71.0675 105.55 70.8953 105.855 70.6692 106.115C70.4466 106.373 70.177 106.574 69.8605 106.721C69.5474 106.863 69.1926 106.934 68.7961 106.934C68.3995 106.934 68.043 106.863 67.7264 106.721C67.4099 106.574 67.1386 106.373 66.9125 106.115C66.6898 105.855 66.5194 105.55 66.4011 105.203C66.2828 104.855 66.2237 104.477 66.2237 104.071ZM67.189 103.951V104.071C67.189 104.352 67.222 104.618 67.2881 104.869C67.3542 105.116 67.4534 105.335 67.5855 105.526C67.7212 105.717 67.8899 105.869 68.0917 105.98C68.2934 106.088 68.5282 106.141 68.7961 106.141C69.0604 106.141 69.2917 106.088 69.49 105.98C69.6918 105.869 69.8587 105.717 69.9909 105.526C70.1231 105.335 70.2223 105.116 70.2883 104.869C70.3579 104.618 70.3927 104.352 70.3927 104.071V103.951C70.3927 103.672 70.3579 103.41 70.2883 103.163C70.2223 102.913 70.1214 102.692 69.9857 102.501C69.8535 102.306 69.6866 102.153 69.4848 102.041C69.2865 101.93 69.0535 101.875 68.7856 101.875C68.5213 101.875 68.2882 101.93 68.0864 102.041C67.8882 102.153 67.7212 102.306 67.5855 102.501C67.4534 102.692 67.3542 102.913 67.2881 103.163C67.222 103.41 67.189 103.672 67.189 103.951Z" fill="#4D5159"/>
<path d="M78.7828 105.735V98.8178H79.7533V106.83H78.8663L78.7828 105.735ZM74.9843 104.071V103.961C74.9843 103.53 75.0365 103.139 75.1408 102.787C75.2487 102.433 75.4 102.128 75.5948 101.875C75.7931 101.621 76.0279 101.426 76.2992 101.29C76.574 101.151 76.8801 101.082 77.2175 101.082C77.5723 101.082 77.8819 101.144 78.1463 101.269C78.4141 101.391 78.6402 101.57 78.8246 101.807C79.0124 102.04 79.1603 102.321 79.2681 102.652C79.3759 102.982 79.4507 103.356 79.4925 103.773V104.253C79.4542 104.667 79.3794 105.039 79.2681 105.369C79.1603 105.7 79.0124 105.982 78.8246 106.215C78.6402 106.448 78.4141 106.627 78.1463 106.752C77.8784 106.874 77.5654 106.934 77.2071 106.934C76.8766 106.934 76.574 106.863 76.2992 106.721C76.0279 106.578 75.7931 106.378 75.5948 106.121C75.4 105.863 75.2487 105.561 75.1408 105.213C75.0365 104.862 74.9843 104.481 74.9843 104.071ZM75.9548 103.961V104.071C75.9548 104.352 75.9826 104.617 76.0383 104.863C76.0974 105.11 76.1879 105.328 76.3096 105.516C76.4314 105.703 76.5862 105.851 76.774 105.959C76.9618 106.063 77.1862 106.115 77.4471 106.115C77.7671 106.115 78.0297 106.048 78.235 105.912C78.4437 105.776 78.6107 105.597 78.7359 105.375C78.8611 105.152 78.9585 104.91 79.0281 104.65V103.392C78.9863 103.201 78.9255 103.017 78.8455 102.84C78.7689 102.659 78.6681 102.499 78.5428 102.36C78.4211 102.217 78.2698 102.104 78.0889 102.021C77.9115 101.937 77.701 101.895 77.4575 101.895C77.1932 101.895 76.9653 101.951 76.774 102.062C76.5862 102.17 76.4314 102.32 76.3096 102.511C76.1879 102.699 76.0974 102.918 76.0383 103.168C75.9826 103.415 75.9548 103.679 75.9548 103.961Z" fill="#4D5159"/>
<path d="M83.5988 106.934C83.2058 106.934 82.8492 106.868 82.5292 106.736C82.2126 106.601 81.9396 106.411 81.71 106.168C81.4839 105.924 81.31 105.636 81.1882 105.302C81.0665 104.968 81.0056 104.603 81.0056 104.206V103.987C81.0056 103.528 81.0734 103.12 81.2091 102.761C81.3448 102.4 81.5291 102.094 81.7622 101.843C81.9952 101.593 82.2596 101.403 82.5553 101.275C82.8509 101.146 83.1571 101.082 83.4736 101.082C83.8771 101.082 84.225 101.151 84.5172 101.29C84.8128 101.429 85.0546 101.624 85.2424 101.875C85.4303 102.121 85.5694 102.414 85.6598 102.751C85.7503 103.085 85.7955 103.45 85.7955 103.846V104.279H81.5796V103.492H84.8302V103.419C84.8163 103.168 84.7641 102.925 84.6737 102.688C84.5867 102.452 84.4476 102.257 84.2563 102.104C84.0649 101.951 83.8041 101.875 83.4736 101.875C83.2545 101.875 83.0527 101.921 82.8683 102.015C82.684 102.106 82.5257 102.241 82.3935 102.422C82.2613 102.603 82.1587 102.824 82.0857 103.085C82.0126 103.346 81.9761 103.646 81.9761 103.987V104.206C81.9761 104.474 82.0126 104.726 82.0857 104.963C82.1622 105.196 82.2718 105.401 82.4144 105.578C82.5605 105.755 82.7362 105.895 82.9414 105.995C83.1501 106.096 83.3866 106.147 83.651 106.147C83.9919 106.147 84.2806 106.077 84.5172 105.938C84.7537 105.799 84.9607 105.613 85.1381 105.38L85.7225 105.844C85.6007 106.028 85.4459 106.204 85.2581 106.371C85.0702 106.538 84.8389 106.674 84.5641 106.778C84.2928 106.882 83.971 106.934 83.5988 106.934Z" fill="#4D5159"/>
<path d="M89.3175 104.071V103.951C89.3175 103.544 89.3766 103.166 89.4949 102.819C89.6132 102.467 89.7836 102.163 90.0062 101.906C90.2289 101.645 90.4984 101.443 90.815 101.301C91.1315 101.155 91.4863 101.082 91.8794 101.082C92.2759 101.082 92.6325 101.155 92.949 101.301C93.2691 101.443 93.5404 101.645 93.763 101.906C93.9891 102.163 94.1613 102.467 94.2796 102.819C94.3978 103.166 94.457 103.544 94.457 103.951V104.071C94.457 104.477 94.3978 104.855 94.2796 105.203C94.1613 105.55 93.9891 105.855 93.763 106.115C93.5404 106.373 93.2708 106.574 92.9543 106.721C92.6412 106.863 92.2864 106.934 91.8898 106.934C91.4933 106.934 91.1367 106.863 90.8202 106.721C90.5037 106.574 90.2323 106.373 90.0062 106.115C89.7836 105.855 89.6132 105.55 89.4949 105.203C89.3766 104.855 89.3175 104.477 89.3175 104.071ZM90.2828 103.951V104.071C90.2828 104.352 90.3158 104.618 90.3819 104.869C90.448 105.116 90.5471 105.335 90.6793 105.526C90.815 105.717 90.9837 105.869 91.1854 105.98C91.3872 106.088 91.622 106.141 91.8898 106.141C92.1542 106.141 92.3855 106.088 92.5838 105.98C92.7855 105.869 92.9525 105.717 93.0847 105.526C93.2169 105.335 93.316 105.116 93.3821 104.869C93.4517 104.618 93.4865 104.352 93.4865 104.071V103.951C93.4865 103.672 93.4517 103.41 93.3821 103.163C93.316 102.913 93.2151 102.692 93.0795 102.501C92.9473 102.306 92.7803 102.153 92.5786 102.041C92.3803 101.93 92.1472 101.875 91.8794 101.875C91.615 101.875 91.382 101.93 91.1802 102.041C90.9819 102.153 90.815 102.306 90.6793 102.501C90.5471 102.692 90.448 102.913 90.3819 103.163C90.3158 103.41 90.2828 103.672 90.2828 103.951Z" fill="#4D5159"/>
<path d="M95.6623 98.8178H96.6328V105.735L96.5493 106.83H95.6623V98.8178ZM100.447 103.961V104.071C100.447 104.481 100.398 104.862 100.301 105.213C100.203 105.561 100.061 105.863 99.873 106.121C99.6852 106.378 99.4556 106.578 99.1842 106.721C98.9129 106.863 98.6016 106.934 98.2503 106.934C97.892 106.934 97.5772 106.874 97.3059 106.752C97.038 106.627 96.8119 106.448 96.6276 106.215C96.4432 105.982 96.2954 105.7 96.184 105.369C96.0762 105.039 96.0014 104.667 95.9597 104.253V103.773C96.0014 103.356 96.0762 102.982 96.184 102.652C96.2954 102.321 96.4432 102.04 96.6276 101.807C96.8119 101.57 97.038 101.391 97.3059 101.269C97.5737 101.144 97.885 101.082 98.2398 101.082C98.5946 101.082 98.9094 101.151 99.1842 101.29C99.4591 101.426 99.6886 101.621 99.873 101.875C100.061 102.128 100.203 102.433 100.301 102.787C100.398 103.139 100.447 103.53 100.447 103.961ZM99.4764 104.071V103.961C99.4764 103.679 99.4504 103.415 99.3982 103.168C99.346 102.918 99.2625 102.699 99.1477 102.511C99.0329 102.32 98.8816 102.17 98.6938 102.062C98.5059 101.951 98.2746 101.895 97.9998 101.895C97.7563 101.895 97.5441 101.937 97.3633 102.021C97.1859 102.104 97.0345 102.217 96.9093 102.36C96.7841 102.499 96.6815 102.659 96.6015 102.84C96.5249 103.017 96.4675 103.201 96.4293 103.392V104.65C96.4849 104.893 96.5754 105.128 96.7006 105.354C96.8293 105.576 96.9998 105.759 97.2119 105.902C97.4276 106.044 97.6937 106.115 98.0103 106.115C98.2711 106.115 98.4938 106.063 98.6781 105.959C98.866 105.851 99.0173 105.703 99.1321 105.516C99.2503 105.328 99.3373 105.11 99.393 104.863C99.4486 104.617 99.4764 104.352 99.4764 104.071Z" fill="#4D5159"/>
<path d="M102.633 102.073V106.83H101.668V101.186H102.607L102.633 102.073ZM104.397 101.155L104.392 102.052C104.312 102.035 104.235 102.024 104.162 102.021C104.092 102.014 104.012 102.01 103.922 102.01C103.699 102.01 103.503 102.045 103.332 102.115C103.162 102.184 103.018 102.281 102.899 102.407C102.781 102.532 102.687 102.681 102.618 102.855C102.551 103.026 102.508 103.213 102.487 103.419L102.216 103.575C102.216 103.234 102.249 102.914 102.315 102.615C102.384 102.316 102.491 102.052 102.633 101.822C102.776 101.589 102.957 101.409 103.176 101.28C103.398 101.148 103.663 101.082 103.969 101.082C104.038 101.082 104.119 101.09 104.209 101.108C104.299 101.122 104.362 101.137 104.397 101.155Z" fill="#4D5159"/>
<path d="M108.409 105.865V102.96C108.409 102.737 108.364 102.544 108.274 102.381C108.187 102.214 108.054 102.085 107.877 101.995C107.7 101.904 107.48 101.859 107.22 101.859C106.976 101.859 106.762 101.901 106.578 101.984C106.397 102.068 106.254 102.177 106.15 102.313C106.049 102.448 105.999 102.594 105.999 102.751H105.033C105.033 102.549 105.086 102.349 105.19 102.151C105.294 101.953 105.444 101.774 105.639 101.614C105.837 101.45 106.073 101.322 106.348 101.228C106.627 101.13 106.936 101.082 107.277 101.082C107.687 101.082 108.049 101.151 108.362 101.29C108.679 101.429 108.926 101.64 109.103 101.921C109.284 102.2 109.375 102.549 109.375 102.97V105.599C109.375 105.787 109.39 105.987 109.421 106.199C109.456 106.411 109.507 106.594 109.573 106.747V106.83H108.566C108.517 106.719 108.479 106.571 108.451 106.387C108.423 106.199 108.409 106.025 108.409 105.865ZM108.576 103.408L108.587 104.086H107.611C107.336 104.086 107.091 104.109 106.875 104.154C106.66 104.196 106.479 104.26 106.333 104.347C106.186 104.434 106.075 104.544 105.999 104.676C105.922 104.804 105.884 104.956 105.884 105.13C105.884 105.307 105.924 105.469 106.004 105.615C106.084 105.761 106.204 105.877 106.364 105.964C106.527 106.048 106.727 106.089 106.964 106.089C107.26 106.089 107.52 106.027 107.747 105.902C107.973 105.776 108.152 105.623 108.284 105.443C108.42 105.262 108.493 105.086 108.503 104.916L108.915 105.38C108.891 105.526 108.825 105.688 108.717 105.865C108.609 106.042 108.465 106.213 108.284 106.376C108.107 106.536 107.894 106.67 107.647 106.778C107.404 106.882 107.129 106.934 106.823 106.934C106.44 106.934 106.105 106.86 105.816 106.71C105.531 106.561 105.308 106.361 105.148 106.11C104.992 105.856 104.913 105.573 104.913 105.26C104.913 104.957 104.972 104.691 105.091 104.462C105.209 104.229 105.379 104.036 105.602 103.883C105.825 103.726 106.093 103.608 106.406 103.528C106.719 103.448 107.068 103.408 107.454 103.408H108.576Z" fill="#4D5159"/>
<path d="M114.18 105.333C114.18 105.194 114.149 105.065 114.086 104.947C114.027 104.825 113.904 104.716 113.716 104.618C113.531 104.517 113.253 104.431 112.881 104.358C112.568 104.291 112.284 104.213 112.03 104.123C111.78 104.032 111.566 103.923 111.389 103.794C111.215 103.665 111.081 103.514 110.987 103.34C110.893 103.166 110.846 102.963 110.846 102.73C110.846 102.507 110.895 102.297 110.992 102.099C111.093 101.901 111.234 101.725 111.415 101.572C111.599 101.419 111.82 101.299 112.077 101.212C112.335 101.125 112.622 101.082 112.938 101.082C113.39 101.082 113.777 101.162 114.097 101.322C114.417 101.482 114.662 101.695 114.832 101.963C115.003 102.228 115.088 102.521 115.088 102.845H114.123C114.123 102.688 114.076 102.537 113.982 102.391C113.891 102.241 113.757 102.118 113.58 102.021C113.406 101.923 113.192 101.875 112.938 101.875C112.67 101.875 112.453 101.916 112.286 102C112.123 102.08 112.003 102.182 111.926 102.308C111.853 102.433 111.816 102.565 111.816 102.704C111.816 102.808 111.834 102.902 111.869 102.986C111.907 103.066 111.973 103.14 112.067 103.21C112.161 103.276 112.293 103.339 112.463 103.398C112.634 103.457 112.851 103.516 113.116 103.575C113.578 103.679 113.959 103.805 114.258 103.951C114.557 104.097 114.78 104.276 114.926 104.488C115.072 104.7 115.145 104.957 115.145 105.26C115.145 105.507 115.093 105.733 114.989 105.938C114.888 106.143 114.74 106.321 114.545 106.47C114.354 106.616 114.124 106.731 113.857 106.814C113.592 106.894 113.295 106.934 112.964 106.934C112.467 106.934 112.046 106.846 111.702 106.668C111.357 106.491 111.096 106.261 110.919 105.98C110.742 105.698 110.653 105.401 110.653 105.088H111.623C111.637 105.352 111.714 105.562 111.853 105.719C111.992 105.872 112.163 105.982 112.364 106.048C112.566 106.11 112.766 106.141 112.964 106.141C113.229 106.141 113.45 106.107 113.627 106.037C113.808 105.968 113.945 105.872 114.039 105.75C114.133 105.629 114.18 105.489 114.18 105.333Z" fill="#4D5159"/>
<path d="M122.351 105.333C122.351 105.194 122.32 105.065 122.257 104.947C122.198 104.825 122.075 104.716 121.887 104.618C121.702 104.517 121.424 104.431 121.052 104.358C120.739 104.291 120.455 104.213 120.201 104.123C119.951 104.032 119.737 103.923 119.56 103.794C119.386 103.665 119.252 103.514 119.158 103.34C119.064 103.166 119.017 102.963 119.017 102.73C119.017 102.507 119.066 102.297 119.163 102.099C119.264 101.901 119.405 101.725 119.586 101.572C119.77 101.419 119.991 101.299 120.248 101.212C120.506 101.125 120.793 101.082 121.109 101.082C121.561 101.082 121.948 101.162 122.268 101.322C122.588 101.482 122.833 101.695 123.003 101.963C123.174 102.228 123.259 102.521 123.259 102.845H122.294C122.294 102.688 122.247 102.537 122.153 102.391C122.062 102.241 121.928 102.118 121.751 102.021C121.577 101.923 121.363 101.875 121.109 101.875C120.841 101.875 120.624 101.916 120.457 102C120.294 102.08 120.174 102.182 120.097 102.308C120.024 102.433 119.987 102.565 119.987 102.704C119.987 102.808 120.005 102.902 120.04 102.986C120.078 103.066 120.144 103.14 120.238 103.21C120.332 103.276 120.464 103.339 120.634 103.398C120.805 103.457 121.022 103.516 121.287 103.575C121.749 103.679 122.13 103.805 122.429 103.951C122.728 104.097 122.951 104.276 123.097 104.488C123.243 104.7 123.316 104.957 123.316 105.26C123.316 105.507 123.264 105.733 123.16 105.938C123.059 106.143 122.911 106.321 122.716 106.47C122.525 106.616 122.295 106.731 122.028 106.814C121.763 106.894 121.466 106.934 121.135 106.934C120.638 106.934 120.217 106.846 119.873 106.668C119.528 106.491 119.267 106.261 119.09 105.98C118.913 105.698 118.824 105.401 118.824 105.088H119.794C119.808 105.352 119.885 105.562 120.024 105.719C120.163 105.872 120.334 105.982 120.535 106.048C120.737 106.11 120.937 106.141 121.135 106.141C121.4 106.141 121.621 106.107 121.798 106.037C121.979 105.968 122.116 105.872 122.21 105.75C122.304 105.629 122.351 105.489 122.351 105.333Z" fill="#4D5159"/>
<path d="M125.633 101.186V106.83H124.663V101.186H125.633ZM124.589 99.6889C124.589 99.5324 124.636 99.4003 124.73 99.2925C124.828 99.1847 124.97 99.1308 125.158 99.1308C125.343 99.1308 125.483 99.1847 125.581 99.2925C125.682 99.4003 125.732 99.5324 125.732 99.6889C125.732 99.8385 125.682 99.9671 125.581 100.075C125.483 100.179 125.343 100.231 125.158 100.231C124.97 100.231 124.828 100.179 124.73 100.075C124.636 99.9671 124.589 99.8385 124.589 99.6889Z" fill="#4D5159"/>
<path d="M128.143 102.308V106.83H127.172V101.186H128.091L128.143 102.308ZM127.945 103.794L127.496 103.779C127.499 103.392 127.55 103.036 127.647 102.709C127.744 102.379 127.889 102.092 128.08 101.848C128.271 101.605 128.51 101.417 128.795 101.285C129.08 101.149 129.411 101.082 129.786 101.082C130.051 101.082 130.294 101.12 130.517 101.196C130.739 101.269 130.933 101.386 131.096 101.546C131.26 101.706 131.386 101.911 131.477 102.161C131.567 102.412 131.613 102.714 131.613 103.069V106.83H130.647V103.116C130.647 102.82 130.597 102.584 130.496 102.407C130.399 102.229 130.259 102.101 130.079 102.021C129.898 101.937 129.685 101.895 129.442 101.895C129.157 101.895 128.918 101.946 128.727 102.047C128.536 102.148 128.383 102.287 128.268 102.464C128.153 102.641 128.07 102.845 128.018 103.074C127.969 103.3 127.945 103.54 127.945 103.794ZM131.602 103.262L130.955 103.46C130.959 103.151 131.009 102.853 131.106 102.568C131.207 102.283 131.352 102.029 131.54 101.807C131.731 101.584 131.966 101.409 132.244 101.28C132.522 101.148 132.84 101.082 133.199 101.082C133.501 101.082 133.769 101.122 134.002 101.202C134.239 101.282 134.437 101.405 134.597 101.572C134.761 101.735 134.884 101.946 134.968 102.203C135.051 102.461 135.093 102.767 135.093 103.121V106.83H134.122V103.111C134.122 102.794 134.072 102.549 133.971 102.375C133.874 102.198 133.734 102.075 133.554 102.005C133.376 101.932 133.164 101.895 132.917 101.895C132.705 101.895 132.517 101.932 132.354 102.005C132.19 102.078 132.053 102.179 131.941 102.308C131.83 102.433 131.745 102.577 131.686 102.74C131.63 102.904 131.602 103.078 131.602 103.262Z" fill="#4D5159"/>
<path d="M137.519 102.271V109H136.549V101.186H137.436L137.519 102.271ZM141.323 103.961V104.071C141.323 104.481 141.274 104.862 141.177 105.213C141.079 105.561 140.937 105.863 140.749 106.121C140.564 106.378 140.337 106.578 140.065 106.721C139.794 106.863 139.483 106.934 139.131 106.934C138.773 106.934 138.457 106.875 138.182 106.757C137.907 106.639 137.674 106.467 137.483 106.241C137.291 106.015 137.138 105.743 137.023 105.427C136.912 105.11 136.836 104.754 136.794 104.358V103.773C136.836 103.356 136.914 102.982 137.029 102.652C137.143 102.321 137.295 102.04 137.483 101.807C137.674 101.57 137.905 101.391 138.177 101.269C138.448 101.144 138.761 101.082 139.116 101.082C139.471 101.082 139.785 101.151 140.06 101.29C140.335 101.426 140.566 101.621 140.754 101.875C140.942 102.128 141.083 102.433 141.177 102.787C141.274 103.139 141.323 103.53 141.323 103.961ZM140.352 104.071V103.961C140.352 103.679 140.323 103.415 140.264 103.168C140.204 102.918 140.112 102.699 139.987 102.511C139.865 102.32 139.709 102.17 139.517 102.062C139.326 101.951 139.098 101.895 138.834 101.895C138.59 101.895 138.378 101.937 138.197 102.021C138.02 102.104 137.869 102.217 137.743 102.36C137.618 102.499 137.516 102.659 137.436 102.84C137.359 103.017 137.302 103.201 137.263 103.392V104.744C137.333 104.987 137.43 105.216 137.556 105.432C137.681 105.644 137.848 105.816 138.057 105.948C138.265 106.077 138.528 106.141 138.844 106.141C139.105 106.141 139.33 106.088 139.517 105.98C139.709 105.869 139.865 105.717 139.987 105.526C140.112 105.335 140.204 105.116 140.264 104.869C140.323 104.618 140.352 104.352 140.352 104.071Z" fill="#4D5159"/>
<path d="M143.603 98.8178V106.83H142.632V98.8178H143.603Z" fill="#4D5159"/>
<path d="M146.201 101.186V106.83H145.231V101.186H146.201ZM145.158 99.6889C145.158 99.5324 145.205 99.4003 145.299 99.2925C145.396 99.1847 145.539 99.1308 145.727 99.1308C145.911 99.1308 146.052 99.1847 146.149 99.2925C146.25 99.4003 146.301 99.5324 146.301 99.6889C146.301 99.8385 146.25 99.9671 146.149 100.075C146.052 100.179 145.911 100.231 145.727 100.231C145.539 100.231 145.396 100.179 145.299 100.075C145.205 99.9671 145.158 99.8385 145.158 99.6889Z" fill="#4D5159"/>
<path d="M149.04 106.83H148.075V100.696C148.075 100.268 148.158 99.9063 148.325 99.6107C148.492 99.3151 148.73 99.0908 149.04 98.9378C149.349 98.7848 149.716 98.7083 150.141 98.7083C150.391 98.7083 150.637 98.7395 150.877 98.8021C151.117 98.8613 151.364 98.936 151.617 99.0264L151.456 99.8402C151.296 99.7776 151.11 99.7185 150.897 99.6628C150.689 99.6037 150.459 99.5742 150.209 99.5742C149.795 99.5742 149.496 99.6681 149.311 99.8558C149.13 100.04 149.04 100.32 149.04 100.696V106.83ZM150.193 101.186V101.927H147.182V101.186H150.193ZM152.092 101.186V106.83H151.127V101.186H152.092Z" fill="#4D5159"/>
<path d="M155.938 106.141C156.167 106.141 156.38 106.095 156.574 106.001C156.769 105.907 156.929 105.778 157.054 105.615C157.18 105.448 157.251 105.258 157.268 105.046H158.187C158.169 105.38 158.056 105.691 157.847 105.98C157.642 106.265 157.373 106.496 157.039 106.674C156.705 106.847 156.338 106.934 155.938 106.934C155.513 106.934 155.143 106.86 154.826 106.71C154.513 106.561 154.252 106.355 154.044 106.095C153.838 105.834 153.684 105.535 153.579 105.197C153.478 104.857 153.428 104.497 153.428 104.118V103.898C153.428 103.519 153.478 103.161 153.579 102.824C153.684 102.483 153.838 102.182 154.044 101.921C154.252 101.661 154.513 101.456 154.826 101.306C155.143 101.156 155.513 101.082 155.938 101.082C156.38 101.082 156.766 101.172 157.096 101.353C157.427 101.53 157.686 101.774 157.874 102.083C158.065 102.389 158.169 102.737 158.187 103.126H157.268C157.251 102.893 157.185 102.683 157.07 102.495C156.959 102.308 156.806 102.158 156.611 102.047C156.42 101.932 156.195 101.875 155.938 101.875C155.642 101.875 155.393 101.934 155.192 102.052C154.993 102.167 154.835 102.323 154.717 102.521C154.602 102.716 154.519 102.933 154.466 103.173C154.418 103.41 154.393 103.652 154.393 103.898V104.118C154.393 104.364 154.418 104.608 154.466 104.848C154.515 105.088 154.597 105.305 154.712 105.5C154.83 105.695 154.988 105.851 155.186 105.969C155.388 106.084 155.639 106.141 155.938 106.141Z" fill="#4D5159"/>
<path d="M162.601 105.865V102.96C162.601 102.737 162.556 102.544 162.465 102.381C162.378 102.214 162.246 102.085 162.069 101.995C161.891 101.904 161.672 101.859 161.411 101.859C161.168 101.859 160.954 101.901 160.769 101.984C160.589 102.068 160.446 102.177 160.342 102.313C160.241 102.448 160.19 102.594 160.19 102.751H159.225C159.225 102.549 159.277 102.349 159.381 102.151C159.486 101.953 159.635 101.774 159.83 101.614C160.028 101.45 160.265 101.322 160.54 101.228C160.818 101.13 161.128 101.082 161.469 101.082C161.879 101.082 162.241 101.151 162.554 101.29C162.87 101.429 163.117 101.64 163.295 101.921C163.476 102.2 163.566 102.549 163.566 102.97V105.599C163.566 105.787 163.582 105.987 163.613 106.199C163.648 106.411 163.698 106.594 163.764 106.747V106.83H162.757C162.709 106.719 162.67 106.571 162.643 106.387C162.615 106.199 162.601 106.025 162.601 105.865ZM162.768 103.408L162.778 104.086H161.802C161.528 104.086 161.282 104.109 161.067 104.154C160.851 104.196 160.67 104.26 160.524 104.347C160.378 104.434 160.267 104.544 160.19 104.676C160.114 104.804 160.075 104.956 160.075 105.13C160.075 105.307 160.115 105.469 160.195 105.615C160.275 105.761 160.395 105.877 160.555 105.964C160.719 106.048 160.919 106.089 161.155 106.089C161.451 106.089 161.712 106.027 161.938 105.902C162.164 105.776 162.343 105.623 162.476 105.443C162.611 105.262 162.684 105.086 162.695 104.916L163.107 105.38C163.083 105.526 163.016 105.688 162.909 105.865C162.801 106.042 162.656 106.213 162.476 106.376C162.298 106.536 162.086 106.67 161.839 106.778C161.596 106.882 161.321 106.934 161.015 106.934C160.632 106.934 160.296 106.86 160.008 106.71C159.722 106.561 159.5 106.361 159.34 106.11C159.183 105.856 159.105 105.573 159.105 105.26C159.105 104.957 159.164 104.691 159.282 104.462C159.401 104.229 159.571 104.036 159.794 103.883C160.016 103.726 160.284 103.608 160.597 103.528C160.91 103.448 161.26 103.408 161.646 103.408H162.768Z" fill="#4D5159"/>
<path d="M168.643 105.735V98.8178H169.613V106.83H168.726L168.643 105.735ZM164.844 104.071V103.961C164.844 103.53 164.897 103.139 165.001 102.787C165.109 102.433 165.26 102.128 165.455 101.875C165.653 101.621 165.888 101.426 166.159 101.29C166.434 101.151 166.74 101.082 167.078 101.082C167.432 101.082 167.742 101.144 168.006 101.269C168.274 101.391 168.5 101.57 168.685 101.807C168.873 102.04 169.02 102.321 169.128 102.652C169.236 102.982 169.311 103.356 169.353 103.773V104.253C169.314 104.667 169.24 105.039 169.128 105.369C169.02 105.7 168.873 105.982 168.685 106.215C168.5 106.448 168.274 106.627 168.006 106.752C167.739 106.874 167.425 106.934 167.067 106.934C166.737 106.934 166.434 106.863 166.159 106.721C165.888 106.578 165.653 106.378 165.455 106.121C165.26 105.863 165.109 105.561 165.001 105.213C164.897 104.862 164.844 104.481 164.844 104.071ZM165.815 103.961V104.071C165.815 104.352 165.843 104.617 165.898 104.863C165.958 105.11 166.048 105.328 166.17 105.516C166.292 105.703 166.446 105.851 166.634 105.959C166.822 106.063 167.046 106.115 167.307 106.115C167.627 106.115 167.89 106.048 168.095 105.912C168.304 105.776 168.471 105.597 168.596 105.375C168.721 105.152 168.819 104.91 168.888 104.65V103.392C168.846 103.201 168.786 103.017 168.706 102.84C168.629 102.659 168.528 102.499 168.403 102.36C168.281 102.217 168.13 102.104 167.949 102.021C167.772 101.937 167.561 101.895 167.318 101.895C167.053 101.895 166.825 101.951 166.634 102.062C166.446 102.17 166.292 102.32 166.17 102.511C166.048 102.699 165.958 102.918 165.898 103.168C165.843 103.415 165.815 103.679 165.815 103.961Z" fill="#4D5159"/>
<path d="M170.861 104.071V103.951C170.861 103.544 170.92 103.166 171.038 102.819C171.156 102.467 171.327 102.163 171.549 101.906C171.772 101.645 172.041 101.443 172.358 101.301C172.675 101.155 173.029 101.082 173.422 101.082C173.819 101.082 174.176 101.155 174.492 101.301C174.812 101.443 175.083 101.645 175.306 101.906C175.532 102.163 175.704 102.467 175.823 102.819C175.941 103.166 176 103.544 176 103.951V104.071C176 104.477 175.941 104.855 175.823 105.203C175.704 105.55 175.532 105.855 175.306 106.115C175.083 106.373 174.814 106.574 174.497 106.721C174.184 106.863 173.829 106.934 173.433 106.934C173.036 106.934 172.68 106.863 172.363 106.721C172.047 106.574 171.775 106.373 171.549 106.115C171.327 105.855 171.156 105.55 171.038 105.203C170.92 104.855 170.861 104.477 170.861 104.071ZM171.826 103.951V104.071C171.826 104.352 171.859 104.618 171.925 104.869C171.991 105.116 172.09 105.335 172.222 105.526C172.358 105.717 172.527 105.869 172.728 105.98C172.93 106.088 173.165 106.141 173.433 106.141C173.697 106.141 173.929 106.088 174.127 105.98C174.329 105.869 174.496 105.717 174.628 105.526C174.76 105.335 174.859 105.116 174.925 104.869C174.995 104.618 175.029 104.352 175.029 104.071V103.951C175.029 103.672 174.995 103.41 174.925 103.163C174.859 102.913 174.758 102.692 174.623 102.501C174.49 102.306 174.323 102.153 174.122 102.041C173.923 101.93 173.69 101.875 173.422 101.875C173.158 101.875 172.925 101.93 172.723 102.041C172.525 102.153 172.358 102.306 172.222 102.501C172.09 102.692 171.991 102.913 171.925 103.163C171.859 103.41 171.826 103.672 171.826 103.951Z" fill="#4D5159"/>
</svg>
